<?xml version="1.0" encoding="utf-8"?>
<!-- Generator: Adobe Illustrator 24.1.2, SVG Export Plug-In . SVG Version: 6.00 Build 0)  -->
<svg version="1.1" id="Warstwa_1" xmlns="http://www.w3.org/2000/svg" xmlns:xlink="http://www.w3.org/1999/xlink" x="0px" y="0px"
	 viewBox="0 0 12.97 12.06" style="enable-background:new 0 0 12.97 12.06;" xml:space="preserve">
<path d="M0.48,12.06c-0.1,0-0.21-0.04-0.3-0.1C0.07,11.86,0,11.72,0,11.58V1.84c0-0.22,0.15-0.41,0.37-0.47l4.17-0.92l0.13,0.01
	l3.71,0.87l3.95-1.32c0.15-0.05,0.31-0.02,0.43,0.07c0.12,0.08,0.2,0.23,0.2,0.38v9.29c0,0.2-0.12,0.37-0.31,0.44l-4.13,1.6
	c-0.04,0.01-0.08,0.02-0.12,0.02l-0.08-0.01l-3.76-0.66L0.48,12.06L0.48,12.06z M0.95,2.22v8.77l3.13-0.69V1.52
	C4.08,1.52,0.95,2.22,0.95,2.22z M5.03,10.28l2.9,0.51V2.21l-2.9-0.68V10.28L5.03,10.28z M8.89,2.18v8.48l3.13-1.22V1.14L8.89,2.18z
	"/>
</svg>
