<?xml version="1.0" encoding="utf-8"?>
<!-- Generator: Adobe Illustrator 24.1.2, SVG Export Plug-In . SVG Version: 6.00 Build 0)  -->
<svg version="1.1" id="Warstwa_1" xmlns="http://www.w3.org/2000/svg" xmlns:xlink="http://www.w3.org/1999/xlink" x="0px" y="0px"
	 viewBox="0 0 12.43 12.43" style="enable-background:new 0 0 12.43 12.43;" xml:space="preserve">
<path d="M8.64,12.43c-0.68,0-1.35-0.18-1.93-0.52c-2.55-1.49-4.69-3.63-6.18-6.18C0.18,5.14,0,4.47,0,3.79c0-1.01,0.41-2,1.12-2.71
	C1.82,0.38,2.74,0,3.72,0h0.56l1.38,3.67L4.58,4.75c0.86,1.2,1.9,2.25,3.1,3.1l1.08-1.08l3.67,1.38v0.56c0,0.97-0.39,1.91-1.07,2.59
	C10.65,12.02,9.65,12.43,8.64,12.43L8.64,12.43z M3.59,1C2.92,1.04,2.31,1.31,1.83,1.78C1.3,2.31,1,3.04,1,3.79
	c0,0.5,0.13,1,0.39,1.43c1.41,2.41,3.42,4.42,5.82,5.82c1.08,0.63,2.56,0.44,3.44-0.44c0.46-0.46,0.74-1.1,0.78-1.75L9.01,7.94
	L7.8,9.15L7.46,8.92c-1.57-1.05-2.9-2.38-3.95-3.95L3.29,4.63l1.21-1.21L3.59,1L3.59,1z"/>
</svg>
