<svg xmlns="http://www.w3.org/2000/svg" width="546.134" height="384" viewBox="0 0 546.134 384">
  <path id="youtube-brands" d="M549.655,124.083a68.622,68.622,0,0,0-48.284-48.6C458.781,64,288,64,288,64S117.22,64,74.629,75.486a68.624,68.624,0,0,0-48.284,48.6C14.933,166.95,14.933,256.388,14.933,256.388s0,89.438,11.412,132.3c6.281,23.65,24.787,41.5,48.284,47.821C117.22,448,288,448,288,448s170.78,0,213.371-11.486c23.5-6.321,42-24.171,48.284-47.821,11.412-42.867,11.412-132.3,11.412-132.3s0-89.438-11.412-132.3ZM232.145,337.591V175.185L374.884,256.39l-142.739,81.2Z" transform="translate(-14.933 -64)"/>
</svg>
