<svg xmlns="http://www.w3.org/2000/svg" width="155.925" height="50.25" viewBox="0 0 155.925 50.25">
  <path id="Path_1" data-name="Path 1" d="M52.95-12.075a13.1,13.1,0,0,1-1.012,5.213A11.522,11.522,0,0,1,49.125-2.85,12.709,12.709,0,0,1,44.888-.3a14.929,14.929,0,0,1-5.213.9,11.576,11.576,0,0,1-7.312-2.55A14.482,14.482,0,0,1,27.6-9L18.525-37.2q-.3-1.875-1.95-1.875-2.175,0-2.175,3V0H3.375V-36.975a13.1,13.1,0,0,1,1.012-5.213A11.522,11.522,0,0,1,7.2-46.2a12.791,12.791,0,0,1,4.2-2.55,14.839,14.839,0,0,1,5.25-.9,11.576,11.576,0,0,1,7.313,2.55,14.482,14.482,0,0,1,4.762,7.05L37.8-11.85a1.99,1.99,0,0,0,2.175,1.875q1.95,0,1.95-3V-49.35H52.95ZM79.725-39q-.375,0-.675.75L65.625,0h-11.1l15.15-42.75a9.516,9.516,0,0,1,3.938-5.213,11.854,11.854,0,0,1,6.262-1.612,11.854,11.854,0,0,1,6.262,1.612,9.516,9.516,0,0,1,3.938,5.213L105.225,0h-11.1l-13.5-38.25q-.3-.75-.6-.75ZM159.3-12.075a13.1,13.1,0,0,1-1.012,5.213,11.522,11.522,0,0,1-2.813,4.012A12.709,12.709,0,0,1,151.238-.3a14.929,14.929,0,0,1-5.213.9,11.577,11.577,0,0,1-7.312-2.55A14.482,14.482,0,0,1,133.95-9l-9.075-28.2q-.3-1.875-1.95-1.875-2.175,0-2.175,3V0H109.725V-36.975a13.1,13.1,0,0,1,1.012-5.213A11.522,11.522,0,0,1,113.55-46.2a12.791,12.791,0,0,1,4.2-2.55,14.839,14.839,0,0,1,5.25-.9,11.576,11.576,0,0,1,7.313,2.55,14.482,14.482,0,0,1,4.762,7.05l9.075,28.2a1.99,1.99,0,0,0,2.175,1.875q1.95,0,1.95-3V-49.35H159.3Z" transform="translate(-3.375 49.65)"/>
</svg>
