<?xml version="1.0" encoding="utf-8"?>
<!-- Generator: Adobe Illustrator 24.1.2, SVG Export Plug-In . SVG Version: 6.00 Build 0)  -->
<svg version="1.1" id="Warstwa_1" xmlns="http://www.w3.org/2000/svg" xmlns:xlink="http://www.w3.org/1999/xlink" x="0px" y="0px"
	 viewBox="0 0 90 30" style="enable-background:new 0 0 90 30;" xml:space="preserve">
<g>
	<path d="M15.82,21.02l-1.28-4.44l-7.16,0.01L6.1,21.03l-5.39,0l7.03-20.8l6.32-0.01l7.15,20.79L15.82,21.02z M13.43,12.47
		l-1.22-4.15c-0.1-0.35-0.23-0.82-0.39-1.41c-0.17-0.59-0.33-1.19-0.49-1.81c-0.17-0.62-0.3-1.14-0.39-1.57
		c-0.1,0.43-0.22,0.95-0.38,1.58c-0.15,0.63-0.31,1.24-0.46,1.83C9.94,7.54,9.81,8,9.72,8.32L8.5,12.47L13.43,12.47z"/>
	<path d="M30.11,21.01l-4.93,0L25.17,4.4l-5.36,0l0-4.09L35.46,0.3l0,4.09l-5.37,0L30.11,21.01z"/>
	<path d="M38.58,21L38.56,0.29l4.93,0l0.01,16.67l8.21-0.01l0,4.03L38.58,21z"/>
	<path d="M67.87,20.98l-1.28-4.44l-7.16,0.01l-1.27,4.44l-5.39,0l7.03-20.8l6.32-0.01l7.15,20.79L67.87,20.98z M65.49,12.42
		l-1.22-4.15c-0.1-0.35-0.23-0.82-0.39-1.41c-0.17-0.59-0.33-1.19-0.49-1.81c-0.17-0.62-0.3-1.14-0.39-1.57
		c-0.1,0.43-0.22,0.95-0.38,1.58C62.46,5.7,62.3,6.31,62.15,6.9c-0.16,0.59-0.28,1.05-0.38,1.38l-1.21,4.15L65.49,12.42z"/>
	<path d="M88.52,14.95c0,1.18-0.29,2.25-0.87,3.21c-0.58,0.96-1.45,1.71-2.61,2.26c-1.16,0.55-2.62,0.83-4.38,0.83
		c-1.24,0-2.33-0.1-3.29-0.32s-1.89-0.53-2.8-0.96l0-4.49c1.04,0.48,2.11,0.89,3.21,1.22c1.09,0.33,2.14,0.49,3.15,0.49
		c0.97,0,1.66-0.18,2.07-0.52c0.42-0.35,0.62-0.8,0.62-1.36c0-0.68-0.33-1.22-1-1.62c-0.67-0.41-1.63-0.9-2.89-1.48
		c-0.81-0.39-1.6-0.83-2.36-1.32c-0.76-0.49-1.39-1.13-1.87-1.91c-0.48-0.78-0.73-1.79-0.73-3.03c0-1.93,0.66-3.41,2-4.44
		c1.33-1.03,3.12-1.54,5.36-1.54c1.2,0,2.32,0.13,3.35,0.4c1.03,0.27,2.03,0.62,3,1.04l-1.56,3.86c-0.93-0.41-1.79-0.72-2.6-0.94
		S82.73,4,81.98,4c-0.79,0-1.38,0.17-1.77,0.49c-0.39,0.33-0.58,0.75-0.58,1.25c0,0.41,0.13,0.76,0.41,1.06
		c0.27,0.3,0.7,0.6,1.28,0.91c0.58,0.31,1.34,0.69,2.29,1.13c1.03,0.46,1.91,0.97,2.64,1.51c0.73,0.54,1.3,1.18,1.68,1.91
		C88.32,12.99,88.51,13.89,88.52,14.95z"/>
</g>
<g>
	<path d="M3.26,23.37c0.82,0,1.43,0.18,1.82,0.53c0.39,0.35,0.59,0.85,0.59,1.49c0,0.38-0.08,0.73-0.23,1.07
		c-0.16,0.33-0.41,0.6-0.77,0.81s-0.85,0.31-1.47,0.31H2.65v2.21H1.12v-6.43H3.26z M3.2,24.63H2.65v1.71h0.4
		c0.31,0,0.57-0.07,0.77-0.21c0.2-0.14,0.3-0.37,0.3-0.68C4.12,24.9,3.81,24.63,3.2,24.63z"/>
	<path d="M12.98,26.58c0,0.67-0.11,1.25-0.32,1.74c-0.22,0.5-0.55,0.88-1,1.16c-0.45,0.28-1.04,0.41-1.76,0.41
		c-0.71,0-1.29-0.14-1.75-0.41c-0.46-0.28-0.79-0.66-1.01-1.16c-0.22-0.5-0.33-1.08-0.33-1.75s0.11-1.25,0.33-1.74
		c0.22-0.49,0.56-0.87,1.01-1.15c0.46-0.27,1.04-0.41,1.75-0.41c0.71,0,1.3,0.14,1.75,0.41s0.79,0.66,1,1.15
		C12.87,25.33,12.98,25.91,12.98,26.58z M8.41,26.58c0,0.63,0.12,1.12,0.35,1.49c0.23,0.36,0.61,0.54,1.13,0.54
		c0.53,0,0.91-0.18,1.13-0.54c0.23-0.36,0.34-0.86,0.34-1.49c0-0.63-0.11-1.13-0.34-1.49c-0.23-0.36-0.6-0.54-1.13-0.54
		c-0.53,0-0.91,0.18-1.14,0.54C8.53,25.45,8.41,25.95,8.41,26.58z"/>
	<path d="M17.25,29.8l-1.44-4.85h-0.04c0.01,0.12,0.02,0.29,0.04,0.52c0.01,0.23,0.02,0.47,0.04,0.72s0.02,0.5,0.02,0.71v2.9H14.5
		v-6.43h2.07L18,28.13h0.04l1.48-4.75h2.06v6.43h-1.42v-2.93c0-0.2,0-0.43,0.01-0.68c0.01-0.25,0.02-0.49,0.03-0.71
		c0.01-0.22,0.02-0.4,0.02-0.52h-0.04l-1.48,4.84H17.25z"/>
	<path d="M29.27,26.58c0,0.67-0.11,1.25-0.32,1.74c-0.22,0.5-0.55,0.88-1,1.16c-0.45,0.28-1.04,0.41-1.76,0.41
		c-0.71,0-1.29-0.14-1.75-0.41c-0.46-0.28-0.79-0.66-1.01-1.16c-0.22-0.5-0.33-1.08-0.33-1.75s0.11-1.25,0.33-1.74
		c0.22-0.49,0.56-0.87,1.01-1.15s1.04-0.41,1.75-0.41c0.71,0,1.3,0.14,1.75,0.41s0.79,0.66,1,1.15
		C29.16,25.33,29.27,25.91,29.27,26.58z M24.7,26.58c0,0.63,0.12,1.12,0.35,1.49c0.23,0.36,0.61,0.54,1.13,0.54
		c0.53,0,0.91-0.18,1.13-0.54c0.23-0.36,0.34-0.86,0.34-1.49c0-0.63-0.11-1.13-0.34-1.49c-0.23-0.36-0.6-0.54-1.13-0.54
		c-0.53,0-0.91,0.18-1.14,0.54C24.82,25.45,24.7,25.95,24.7,26.58z"/>
	<path d="M33.58,24.55c-0.47,0-0.84,0.18-1.09,0.54c-0.26,0.36-0.38,0.87-0.38,1.51c0,0.65,0.12,1.15,0.37,1.5s0.63,0.52,1.15,0.52
		c0.27,0,0.54-0.03,0.8-0.1c0.26-0.07,0.54-0.16,0.84-0.26v1.3c-0.28,0.12-0.57,0.21-0.85,0.26s-0.6,0.08-0.94,0.08
		c-0.68,0-1.24-0.14-1.67-0.41c-0.43-0.28-0.75-0.66-0.96-1.15c-0.21-0.49-0.31-1.07-0.31-1.73c0-0.65,0.12-1.22,0.36-1.72
		c0.24-0.5,0.58-0.89,1.04-1.17c0.46-0.28,1.01-0.42,1.67-0.42c0.32,0,0.64,0.04,0.97,0.11s0.65,0.19,0.95,0.34l-0.48,1.22
		c-0.24-0.11-0.48-0.21-0.72-0.29C34.07,24.59,33.83,24.55,33.58,24.55z"/>
	<path d="M44.83,26.49c0,1.1-0.31,1.93-0.92,2.48c-0.61,0.55-1.46,0.83-2.53,0.83h-1.93v-6.43h2.12c1.01,0,1.81,0.27,2.39,0.8
		C44.54,24.7,44.83,25.47,44.83,26.49z M43.25,26.54c0-0.65-0.14-1.14-0.42-1.45c-0.28-0.31-0.69-0.47-1.22-0.47h-0.63v3.92h0.49
		c0.61,0,1.05-0.17,1.34-0.5C43.11,27.71,43.25,27.21,43.25,26.54z"/>
	<path d="M48.34,23.37c1.73,0,2.59,0.64,2.59,1.92c0,0.42-0.11,0.77-0.33,1.04c-0.22,0.28-0.49,0.5-0.82,0.67l1.88,2.8h-1.72
		l-1.45-2.41h-0.6v2.41h-1.53v-6.43H48.34z M48.27,24.58h-0.39v1.61h0.39c0.37,0,0.64-0.07,0.82-0.2c0.18-0.13,0.28-0.35,0.28-0.64
		c0-0.26-0.09-0.45-0.26-0.58C48.94,24.64,48.66,24.58,48.27,24.58z"/>
	<path d="M58.55,26.58c0,0.67-0.11,1.25-0.32,1.74s-0.55,0.88-1,1.16c-0.45,0.28-1.04,0.41-1.76,0.41c-0.71,0-1.29-0.14-1.75-0.41
		c-0.46-0.28-0.79-0.66-1.01-1.16s-0.33-1.08-0.33-1.75s0.11-1.25,0.33-1.74c0.22-0.49,0.56-0.87,1.01-1.15s1.04-0.41,1.75-0.41
		s1.3,0.14,1.75,0.41s0.79,0.66,1,1.15C58.44,25.33,58.55,25.91,58.55,26.58z M53.99,26.58c0,0.63,0.12,1.12,0.35,1.49
		c0.23,0.36,0.61,0.54,1.13,0.54c0.53,0,0.91-0.18,1.13-0.54c0.23-0.36,0.34-0.86,0.34-1.49c0-0.63-0.11-1.13-0.34-1.49
		c-0.23-0.36-0.6-0.54-1.13-0.54s-0.91,0.18-1.14,0.54C54.1,25.45,53.99,25.95,53.99,26.58z"/>
	<path d="M62.57,26.12h2.66v3.39c-0.34,0.11-0.7,0.21-1.09,0.27c-0.39,0.07-0.82,0.1-1.28,0.1c-0.94,0-1.68-0.28-2.23-0.83
		s-0.81-1.38-0.81-2.48c0-0.67,0.13-1.25,0.39-1.75c0.26-0.49,0.64-0.87,1.14-1.14c0.5-0.27,1.11-0.4,1.84-0.4
		c0.37,0,0.72,0.04,1.07,0.11c0.34,0.07,0.65,0.17,0.91,0.29l-0.5,1.22c-0.21-0.1-0.44-0.19-0.69-0.25
		c-0.25-0.06-0.51-0.09-0.8-0.09c-0.39,0-0.72,0.09-0.99,0.27c-0.27,0.18-0.47,0.42-0.6,0.73c-0.13,0.31-0.2,0.66-0.2,1.06
		c0,0.62,0.13,1.11,0.38,1.47c0.25,0.36,0.65,0.54,1.19,0.54c0.15,0,0.29-0.01,0.44-0.03c0.14-0.02,0.26-0.04,0.36-0.05v-1.19h-1.19
		V26.12z"/>
	<path d="M72.83,26.58c0,0.67-0.11,1.25-0.32,1.74s-0.55,0.88-1,1.16c-0.45,0.28-1.04,0.41-1.76,0.41c-0.71,0-1.29-0.14-1.75-0.41
		c-0.46-0.28-0.79-0.66-1.01-1.16s-0.33-1.08-0.33-1.75s0.11-1.25,0.33-1.74c0.22-0.49,0.56-0.87,1.01-1.15s1.04-0.41,1.75-0.41
		s1.3,0.14,1.75,0.41s0.79,0.66,1,1.15C72.73,25.33,72.83,25.91,72.83,26.58z M68.27,26.58c0,0.63,0.12,1.12,0.35,1.49
		c0.23,0.36,0.61,0.54,1.13,0.54c0.53,0,0.91-0.18,1.13-0.54c0.23-0.36,0.34-0.86,0.34-1.49c0-0.63-0.11-1.13-0.34-1.49
		c-0.23-0.36-0.6-0.54-1.13-0.54s-0.91,0.18-1.14,0.54C68.39,25.45,68.27,25.95,68.27,26.58z"/>
	<path d="M82.44,23.37l-1.61,6.43h-1.78l-0.75-3.11c-0.01-0.06-0.03-0.16-0.06-0.29c-0.03-0.13-0.06-0.28-0.09-0.43
		c-0.03-0.16-0.06-0.31-0.08-0.45s-0.04-0.27-0.05-0.37c-0.01,0.1-0.03,0.22-0.06,0.37c-0.03,0.15-0.06,0.3-0.08,0.45
		c-0.03,0.16-0.06,0.3-0.09,0.43c-0.03,0.13-0.05,0.23-0.07,0.29l-0.76,3.11h-1.77l-1.62-6.43h1.49l0.77,3.38
		c0.03,0.13,0.07,0.29,0.11,0.5s0.08,0.43,0.12,0.65c0.04,0.22,0.07,0.4,0.08,0.54c0.02-0.19,0.06-0.42,0.11-0.68
		c0.05-0.26,0.1-0.51,0.15-0.76c0.05-0.24,0.09-0.43,0.13-0.57l0.76-3.06h1.43l0.77,3.06c0.02,0.1,0.05,0.24,0.08,0.41
		s0.07,0.35,0.11,0.54c0.04,0.19,0.08,0.38,0.11,0.57c0.03,0.19,0.06,0.35,0.08,0.49c0.02-0.15,0.05-0.33,0.08-0.54
		s0.08-0.42,0.12-0.63s0.08-0.38,0.11-0.5l0.77-3.38H82.44z"/>
	<path d="M87.11,29.8l-0.4-1.38h-2.22l-0.4,1.38h-1.67l2.19-6.45h1.96l2.21,6.45H87.11z M86.37,27.15l-0.38-1.29
		c-0.03-0.11-0.07-0.25-0.12-0.44c-0.05-0.18-0.1-0.37-0.15-0.56c-0.05-0.19-0.09-0.35-0.12-0.49c-0.03,0.13-0.07,0.3-0.12,0.49
		c-0.05,0.2-0.1,0.38-0.14,0.57c-0.05,0.18-0.09,0.33-0.12,0.43l-0.38,1.29H86.37z"/>
</g>
</svg>
